# xmcd CD database file
#
# Track frame offsets:
#	150
#	13827
#	30048
#	49309
#	64429
#	84383
#	99364
#	118999
#	136888
#	153486
#	171027
#	189393
#
# Disc length: 2743 seconds
#
# Revision: 1
# Processed by: cddbd v1.4PL0 Copyright (c) Steve Scherf et al.
# Submitted via: CDex 1.50beta10
#
DISCID=980ab50c
DTITLE=James Armstrong - Dark Night
DYEAR=1998
DGENRE=Blues
TTITLE0=Dark Night
TTITLE1=Too Many Misses For Me
TTITLE2=Slender Man Blues
TTITLE3=Trouble On The Home Front
TTITLE4=Lil' James
TTITLE5=Can't Get Off Your Love (Heaven Help Me)
TTITLE6=Bank Of Love
TTITLE7=What I Would Do (For Your Love)
TTITLE8=Witchin' Moon
TTITLE9=Here For The Music
TTITLE10=Standing In Your Way
TTITLE11=Just In Case
EXTD=YEAR: 1998
EXTT0=
EXTT1=
EXTT2=
EXTT3=
EXTT4=
EXTT5=
EXTT6=
EXTT7=
EXTT8=
EXTT9=
EXTT10=
EXTT11=
PLAYORDER=
